/* XPM */
static char *dummy[]={
"32 32 8 1",
"d c #202018",
"b c #303018",
"f c #482020",
"c c #584828",
"e c #703838",
"# c #807030",
"a c #a89868",
". c #e8d0a0",
"................................",
".........##############.........",
"aaaaaaaa.##aaaaaaaaaa##.aaaaaaaa",
"bbbbbbbb.##aaaaaaaaaa##.bbbbbbbb",
"cccccccc.##aaaaaaaaaa##.cccccccc",
"########.a##aaaaaaaa##a.########",
"#########.a##########a.#########",
"########c#..aaaaaaaa..#c########",
"aaaaaaaabbca........acbbaaaaaaaa",
"aaaaaaaabcbcc######ccbcba.aaaaaa",
"########b#bcbccbbccbcb#bca######",
"########b##cbbcbbcbbc##bca######",
"########bca#cbcbbcbc#acbca######",
"########bc#a########a#cbca######",
"########cbc#aaaaaaaa#cbcc#######",
"cccccccccb#cc######cc#bccccccccc",
"#.aaaaaacb#cbccccccbc#bcaaaaaaaa",
"cacccccccb##bbcbbcbb##bccccccccc",
"baccccccccb#cb#bb#bc#bcccccccccc",
"b#ccccccccb#cc#cc#cc#bcccccccccc",
"bbbbbbbbbbb#cc#cc#cc#bbbbbbbbbbb",
"########ccbc#c#cc#c#cbccb#######",
"ccccccccccbc#c#cc#c#cbccb#cccccc",
"ccccccccccbc#c#cc#c#cbccbccccccc",
"ddddddddbb#b#c#cc#c#b#bbdddddddd",
"ddddddddbb##bc#cc#cb##bbdddddddd",
"###d####bec##bbbbbb##ceb####d###",
"ee#d#eeebebc###aa###cbebeee#d#ee",
"ee#d#eeebefbcc####ccbfebeee#d#ee",
"ee#d#eeebeffbbbbbbbbffebeee#d#ee",
"###d####baeeeeeeeeeeeeab####d###",
"ddddddddbbbbbbbbbbbbbbbbdddddddd"};
