/* XPM */
static char *dummy[]={
"32 32 12 1",
"i c #202018",
"c c #303018",
"d c #305088",
"e c #387098",
"a c #584828",
"f c #602828",
"j c #703838",
"b c #807030",
"g c #988830",
"# c #a89868",
"h c #c8c070",
". c #e8d0a0",
"......#####..........#####......",
".......###............###.......",
"#####.......########.......#####",
"aaaaa#.....#aaaaaaaa#.....#aaaaa",
"abbbab#####babbbbbbab#####babbba",
"a.##baaaaaaab######baaaaaaab##.a",
"a.###bbbbbbb########bbbbbbb###.a",
"a..............................a",
"cccccccccccccccccccccccccccccccc",
"cdddccccccccccccccccccccccccdddc",
"ceeecfccccffffffffffffccccfceeec",
"ceeeccghhgcfffccccfffcghhgcceeec",
"ceeecfcghcfffchhhhcfffchgcfceeec",
"ceeecfcghcffchgggghcffchgcfceeec",
"ceeecfcgghcchgggggghcchggcfceeec",
"ceeecffcgghhggccccgghhggcffceeec",
"cdeecfffcggggcfccfcggggcfffceedc",
"cdeedcfhhccccffhhffcccchhfcdeedc",
"aceeecfggffcecfggfcecffggfceeeca",
"acdeeecfffceeecffceeecfffceeedca",
"cccdeeecfceedeecceedeecfceeedccc",
"aaccdeeeceedcdeeeedcdeeceeedccaa",
"aaaccdeeeedcacdeedcacdeeeedccaaa",
"aaaaccdeedcaaacddcaaacdeedccaaaa",
"iiiiiiiiiiiiiiiiiiiiiiiiiiiiiiii",
"iiiiiiiiiiiiiiiiiiiiiiiiiiiiiiii",
"bbbbibbbbbbibbbbbbbbibbbbbbibbbb",
"jjjbibjjjjbibjjjjjjbibjjjjbibjjj",
"jjjbibjjjjbibjjjjjjbibjjjjbibjjj",
"jjjbibjjjjbibjjjjjjbibjjjjbibjjj",
"bbbbibbbbbbibbbbbbbbibbbbbbibbbb",
"iiiiiiiiiiiiiiiiiiiiiiiiiiiiiiii"};
