/* XPM */
static char *dummy[]={
"32 32 7 1",
"d c #202018",
"a c #303018",
"b c #584828",
"e c #703838",
"c c #807030",
"# c #a89868",
". c #e8d0a0",
"................................",
"................................",
"################################",
"aaaaaaaaaaaaaaaaaaaaaaaaaaaaaaaa",
"bbbbbbbbbbbbbbbbbbbbbbbbbbbbbbbb",
"cccccccccccccccccccccccccccccccc",
"cccccccccccccccccccccccccccccccc",
"cccccccccccccccccccccccccccccccc",
"################################",
"#.###############.##############",
"b#ccccccccccccccb#cccccccccccccc",
"b#ccccccccccccccb#cccccccccccccc",
"b#ccccccccccccccb#cccccccccccccc",
"b#ccccccccccccccb#cccccccccccccc",
"bcccccccccccccccbccccccccccccccc",
"bbbbbbbbbbbbbbbbbbbbbbbbbbbbbbbb",
"########c.##############c.######",
"bbbbbbbbb#bbbbbbbbbbbbbbb#bbbbbb",
"bbbbbbbba#bbbbbbbbbbbbbba#bbbbbb",
"bbbbbbbbacbbbbbbbbbbbbbbacbbbbbb",
"aaaaaaaaaaaaaaaaaaaaaaaaaaaaaaaa",
"acccccccccccccccaccccccccccccccc",
"acbbbbbbbbbbbbbbacbbbbbbbbbbbbbb",
"abbbbbbbbbbbbbbbabbbbbbbbbbbbbbb",
"dddddddddddddddddddddddddddddddd",
"dddddddddddddddddddddddddddddddd",
"ccccdccccccdccccccccdccccccdcccc",
"eeecdceeeecdceeeeeecdceeeecdceee",
"eeecdceeeecdceeeeeecdceeeecdceee",
"eeecdceeeecdceeeeeecdceeeecdceee",
"ccccdccccccdccccccccdccccccdcccc",
"dddddddddddddddddddddddddddddddd"};
