/* XPM */
static char *dummy[]={
"32 32 12 1",
"b c #303018",
"d c #305088",
"f c #387098",
"i c #482020",
"c c #584828",
"j c #602828",
"h c #703838",
"# c #807030",
"g c #988830",
". c #a89868",
"e c #c8c070",
"a c #e8d0a0",
"...##......##...aaaaaaaaaaaaaaaa",
"...#........#...a##############a",
".#....#..#....#.a##..........##a",
"................a##..........##a",
"aa....aaaa....aaa##..........##a",
"..aaaa....aaaa..a.##........##.a",
"##....####....##.aa.########.aa.",
"bbc##cbbbbc##cbbc#.aaaaaaaaaa.#c",
"bdbddbbbbbbddbdbbbc#........#cbb",
"efdbffddddffbdfebcbcc######ccbcb",
"ebfdbdffffdbdfbeb#bcbccbbccbcb#b",
"gbdfdbddddbdfdbgb##cbbcbbcbbc##b",
"ddbffdbbbbdffbddbc.#cb#bb#bc#.cb",
"bfbdffddddffdbfbbc#..######..#cb",
"bfdbdffddffdbdfbcbc##..aa..##cbc",
"bdfbddffffddbfdbcbccc######cccbc",
"dbfdbddffddbdfbdcb#cbccccccbc#bc",
"ebdfdbddddbdfdbecbc#bbcbbcbb#cbc",
"gdbdfdbddbdfdbdgcbb#cb#bb#bc#bbc",
"ddbddfdbbdfddbddcbb#cc#cc#cc#bbc",
"bfdbddffffddbdfbbbb#cc#cc#cc#bbb",
"bdfdbddffddbdfdbcbbc#c#cc#c#cbbc",
"gbdfdbddddbdfdbgcbbc#c#cc#c#cbbc",
"cbddfdbbbbdfddbccbbc#c#cc#c#cbbc",
"cbbddfddddfddbbcbb#b#c#cc#c#b#bb",
"bcbbddffffddbbcbbb##bc#cc#cb##bb",
"bccbbddddddbbccbbhc##bbbbbb##chb",
"bbcccbbbbbbcccbbbhbc###..###cbhb",
"bbbbccggggccbbbbbhibcc####ccbihb",
"bbbbbbbbbbbbbbbbbhiibbbbbbbbiihb",
"jjbbbbbbbbbbbbjjb.hhhhhhhhhhhh.b",
"jjjjjjjjjjjjjjjjbbbbbbbbbbbbbbbb"};
