/* XPM */
static char *dummy[]={
"32 32 8 1",
". c #000000",
"# c #303030",
"e c #585858",
"b c #784848",
"f c #a0a0a0",
"c c #a87850",
"a c #d0a830",
"d c #e8e8e8",
"................................",
"................................",
"................................",
"................................",
"................................",
"................................",
"................................",
"................................",
"................................",
"................................",
"................................",
"................................",
"................................",
"................................",
"................................",
"................................",
"..............####..............",
".............#aaaa#.............",
"............#ab##ba#............",
"...........##a####a##...........",
"..........#b#ab##ba#b#..........",
"..........#c#baaaab#c#..........",
"..........#cb#bbbb#bc#..........",
"..........#ccb####bcc#..........",
"..........#cbccddccbc#..........",
"..........#bbbccccbbb#..........",
"..........e#bbcbbcbb#e..........",
"........##fe#bbbbbb#ef##........",
"........#fffe######efff#........",
"........#effffffffffffe#........",
"........#feeeeeeeeeeeef#........",
"........################........"};
